<mxfile host="app.diagrams.net" modified="2021-08-10T09:59:06.481Z" agent="5.0 (X11; Linux x86_64) AppleWebKit/537.36 (KHTML, like Gecko) Chrome/91.0.4472.114 Safari/537.36" etag="cBxThfRfVM4hB_lPdNTE" version="14.9.5" type="github">
  <diagram id="3CnhUhguxaNA2H1j5C3d" name="Page-1">
    <mxGraphModel dx="747" dy="693" grid="1" gridSize="10" guides="1" tooltips="1" connect="1" arrows="1" fold="1" page="1" pageScale="1" pageWidth="827" pageHeight="1169" math="0" shadow="0">
      <root>
        <mxCell id="0" />
        <mxCell id="1" parent="0" />
        <mxCell id="e0xiSFODBVrUhTWxT_gc-1" value="" style="shape=trapezoid;perimeter=trapezoidPerimeter;whiteSpace=wrap;html=1;fixedSize=1;rotation=-180;fillColor=#ffe6cc;strokeColor=#d79b00;" parent="1" vertex="1">
          <mxGeometry x="240" y="350" width="180" height="40" as="geometry" />
        </mxCell>
        <mxCell id="e0xiSFODBVrUhTWxT_gc-2" value="" style="shape=trapezoid;perimeter=trapezoidPerimeter;whiteSpace=wrap;html=1;fixedSize=1;rotation=-180;fillColor=#ffe6cc;strokeColor=#d79b00;" parent="1" vertex="1">
          <mxGeometry x="260" y="390" width="140" height="40" as="geometry" />
        </mxCell>
        <mxCell id="e0xiSFODBVrUhTWxT_gc-3" value="" style="shape=trapezoid;perimeter=trapezoidPerimeter;whiteSpace=wrap;html=1;fixedSize=1;rotation=-180;fillColor=#ffe6cc;strokeColor=#d79b00;" parent="1" vertex="1">
          <mxGeometry x="280" y="430" width="100" height="30" as="geometry" />
        </mxCell>
        <mxCell id="e0xiSFODBVrUhTWxT_gc-4" value="" style="shape=trapezoid;perimeter=trapezoidPerimeter;whiteSpace=wrap;html=1;fixedSize=1;rotation=-180;fillColor=#ffe6cc;strokeColor=#d79b00;" parent="1" vertex="1">
          <mxGeometry x="300" y="460" width="60" height="30" as="geometry" />
        </mxCell>
        <mxCell id="e0xiSFODBVrUhTWxT_gc-5" value="" style="shape=trapezoid;perimeter=trapezoidPerimeter;whiteSpace=wrap;html=1;fixedSize=1;rotation=-180;fillColor=#ffe6cc;strokeColor=#d79b00;" parent="1" vertex="1">
          <mxGeometry x="220" y="310" width="220" height="40" as="geometry" />
        </mxCell>
        <mxCell id="e0xiSFODBVrUhTWxT_gc-6" value="" style="shape=trapezoid;perimeter=trapezoidPerimeter;whiteSpace=wrap;html=1;fixedSize=1;rotation=-180;fillColor=#ffe6cc;strokeColor=#d79b00;" parent="1" vertex="1">
          <mxGeometry x="200" y="270" width="260" height="40" as="geometry" />
        </mxCell>
        <mxCell id="e0xiSFODBVrUhTWxT_gc-7" value="&lt;font size=&quot;1&quot;&gt;&lt;b style=&quot;font-size: 20px&quot;&gt;搜索商品&lt;/b&gt;&lt;/font&gt;" style="text;html=1;strokeColor=none;fillColor=none;align=center;verticalAlign=middle;whiteSpace=wrap;rounded=0;" parent="1" vertex="1">
          <mxGeometry x="285" y="285" width="90" height="10" as="geometry" />
        </mxCell>
        <mxCell id="e0xiSFODBVrUhTWxT_gc-8" value="&lt;font size=&quot;1&quot;&gt;&lt;b style=&quot;font-size: 19px&quot;&gt;选择商品&lt;/b&gt;&lt;/font&gt;" style="text;html=1;strokeColor=none;fillColor=none;align=center;verticalAlign=middle;whiteSpace=wrap;rounded=0;" parent="1" vertex="1">
          <mxGeometry x="285" y="325" width="90" height="10" as="geometry" />
        </mxCell>
        <mxCell id="e0xiSFODBVrUhTWxT_gc-10" value="&lt;font size=&quot;1&quot;&gt;&lt;b style=&quot;font-size: 18px&quot;&gt;商品类型&lt;/b&gt;&lt;/font&gt;" style="text;html=1;strokeColor=none;fillColor=none;align=center;verticalAlign=middle;whiteSpace=wrap;rounded=0;" parent="1" vertex="1">
          <mxGeometry x="285" y="362.5" width="90" height="15" as="geometry" />
        </mxCell>
        <mxCell id="e0xiSFODBVrUhTWxT_gc-11" value="&lt;b&gt;&lt;font style=&quot;font-size: 17px&quot;&gt;询问客服&lt;/font&gt;&lt;/b&gt;" style="text;html=1;strokeColor=none;fillColor=none;align=center;verticalAlign=middle;whiteSpace=wrap;rounded=0;" parent="1" vertex="1">
          <mxGeometry x="285" y="405" width="90" height="10" as="geometry" />
        </mxCell>
        <mxCell id="e0xiSFODBVrUhTWxT_gc-13" value="&lt;b&gt;&lt;font style=&quot;font-size: 15px&quot;&gt;支付&lt;/font&gt;&lt;/b&gt;" style="text;html=1;strokeColor=none;fillColor=none;align=center;verticalAlign=middle;whiteSpace=wrap;rounded=0;" parent="1" vertex="1">
          <mxGeometry x="285" y="460" width="90" height="20" as="geometry" />
        </mxCell>
        <mxCell id="e0xiSFODBVrUhTWxT_gc-16" value="&lt;b&gt;&lt;font style=&quot;font-size: 17px&quot;&gt;加购&lt;/font&gt;&lt;/b&gt;" style="text;html=1;align=center;verticalAlign=middle;whiteSpace=wrap;rounded=0;" parent="1" vertex="1">
          <mxGeometry x="285" y="435" width="90" height="15" as="geometry" />
        </mxCell>
      </root>
    </mxGraphModel>
  </diagram>
</mxfile>
